<svg width="1400" height="900" viewBox="0 0 1400 900" xmlns="http://www.w3.org/2000/svg">
  <defs>
    <linearGradient id="bg" x1="0" y1="0" x2="1" y2="1">
      <stop offset="0%" stop-color="#0a0a0a"/>
      <stop offset="100%" stop-color="#1c1620"/>
    </linearGradient>
  </defs>
  <rect width="1400" height="900" fill="url(#bg)"/>

  <!-- top bar -->
  <rect x="0" y="0" width="1400" height="72" fill="#150f1c"/>
  <circle cx="40" cy="36" r="7" fill="#ff5f57"/>
  <circle cx="66" cy="36" r="7" fill="#febc2e"/>
  <circle cx="92" cy="36" r="7" fill="#28c840"/>
  <text x="700" y="44" text-anchor="middle" fill="#fcfaf9" font-family="Inter, sans-serif" font-size="20" font-weight="600">CORE_ID · Panel de detección</text>

  <!-- score card -->
  <rect x="60" y="120" width="380" height="300" rx="16" fill="#2b2538" stroke="#c5ff4a" stroke-width="2" opacity="0.9"/>
  <text x="90" y="170" fill="#a69f9d" font-family="JetBrains Mono, monospace" font-size="18">SCORE DE RIESGO</text>
  <text x="90" y="270" fill="#c5ff4a" font-family="Inter, sans-serif" font-size="90" font-weight="300">82</text>
  <text x="90" y="310" fill="#fcfaf9" font-family="Inter, sans-serif" font-size="24" font-weight="600">PHISHING DETECTADO</text>
  <text x="90" y="345" fill="#a69f9d" font-family="Inter, sans-serif" font-size="15">Suplantación Bancolombia · Nequi</text>

  <!-- reasons list -->
  <rect x="460" y="120" width="880" height="300" rx="16" fill="#221d2c"/>
  <text x="490" y="160" fill="#a69f9d" font-family="JetBrains Mono, monospace" font-size="16">MOTIVOS DETECTADOS</text>

  <rect x="490" y="185" width="820" height="46" rx="8" fill="#2b2538"/>
  <circle cx="515" cy="208" r="5" fill="#c5ff4a"/>
  <text x="535" y="213" fill="#fcfaf9" font-family="Inter, sans-serif" font-size="15">Dominio no coincide con el remitente oficial (display name spoofing)</text>

  <rect x="490" y="243" width="820" height="46" rx="8" fill="#2b2538"/>
  <circle cx="515" cy="266" r="5" fill="#c5ff4a"/>
  <text x="535" y="271" fill="#fcfaf9" font-family="Inter, sans-serif" font-size="15">Lenguaje de urgencia: "tu cuenta será bloqueada en 24 horas"</text>

  <rect x="490" y="301" width="820" height="46" rx="8" fill="#2b2538"/>
  <circle cx="515" cy="324" r="5" fill="#c5ff4a"/>
  <text x="535" y="329" fill="#fcfaf9" font-family="Inter, sans-serif" font-size="15">Enlace acortado que redirige fuera del dominio del banco</text>

  <rect x="490" y="359" width="820" height="46" rx="8" fill="#2b2538"/>
  <circle cx="515" cy="382" r="5" fill="#c5ff4a"/>
  <text x="535" y="387" fill="#fcfaf9" font-family="Inter, sans-serif" font-size="15">Coincidencia con léxico de fraude "hola mamá" / robo WhatsApp</text>

  <!-- bottom stats strip -->
  <rect x="60" y="460" width="1280" height="180" rx="16" fill="#221d2c"/>
  <text x="100" y="510" fill="#a69f9d" font-family="JetBrains Mono, monospace" font-size="16">MENSAJES ANALIZADOS HOY</text>
  <text x="100" y="590" fill="#fcfaf9" font-family="Inter, sans-serif" font-size="56" font-weight="300">1,247</text>

  <text x="500" y="510" fill="#a69f9d" font-family="JetBrains Mono, monospace" font-size="16">FRAUDES BLOQUEADOS</text>
  <text x="500" y="590" fill="#c5ff4a" font-family="Inter, sans-serif" font-size="56" font-weight="300">318</text>

  <text x="900" y="510" fill="#a69f9d" font-family="JetBrains Mono, monospace" font-size="16">CORREOS FILTRADOS</text>
  <text x="900" y="590" fill="#fcfaf9" font-family="Inter, sans-serif" font-size="56" font-weight="300">54</text>

  <!-- footer line -->
  <rect x="60" y="680" width="1280" height="2" fill="#a69f9d" opacity="0.2"/>
  <text x="60" y="730" fill="#a69f9d" font-family="Inter, sans-serif" font-size="16">CORE_ID — detección explicable de fraude digital en Colombia</text>
</svg>
